<?xml version="1.0" encoding="UTF-8"?>
<svg width="150px" height="85px" viewBox="0 0 150 85" version="1.1" xmlns="http://www.w3.org/2000/svg" xmlns:xlink="http://www.w3.org/1999/xlink">
    <title>Group 3</title>
    <defs>
        <polygon id="path-1" points="0.0002 -1.42108547e-14 149.557 -1.42108547e-14 149.557 84.4399 0.0002 84.4399"></polygon>
    </defs>
    <g id="Page-1" stroke="none" stroke-width="1" fill="none" fill-rule="evenodd">
        <g id="Group-3">
            <mask id="mask-2" fill="white">
                <use xlink:href="#path-1"></use>
            </mask>
            <g id="Clip-2"></g>
            <path d="M98.2552,80.222 L98.2552,49.106 C126.9842,51.565 144.4602,58.186 145.9612,63.874 C145.9922,64.087 146.0312,64.296 146.0612,64.508 L146.0632,64.508 C146.0652,64.561 146.0792,64.612 146.0792,64.663 C146.0792,70.656 128.3932,77.675 98.2552,80.222 L98.2552,80.222 Z M98.2552,6.278 C121.3072,14.192 138.8352,33.314 144.6462,57.108 C135.8582,50.881 116.6302,47.185 98.2552,45.622 L98.2552,6.278 Z M51.3032,45.614 C25.9762,47.677 11.5202,52.39 4.7682,57.395 C10.4062,33.618 28.0352,14.374 51.3032,6.352 L51.3032,45.614 Z M51.3032,80.218 C21.1922,77.659 3.4792,70.608 3.4792,64.663 C3.4792,58.792 21.2272,51.678 51.3032,49.108 L51.3032,80.218 Z M149.5072,64.04 L149.5072,64.04 C149.5072,64.032 149.5042,64.026 149.5042,64.018 C149.4772,63.748 149.4402,63.485 149.3792,63.224 C144.7112,31.504 120.5452,6.237 88.9912,0.216 L88.9842,0.252 L87.8212,0.092 L87.8212,77.301 L61.9712,-1.42108547e-14 L60.4702,0.294 C28.6582,6.516 4.3772,31.982 0.0502,63.663 L0.1012,63.67 C0.0412,64.004 0.0002,64.338 0.0002,64.663 C0.0002,76.061 29.9812,82.729 59.6922,84.28 C60.3622,84.314 61.0592,84.331 61.7352,84.362 L61.7352,67.688 L61.7352,10.261 L86.5432,84.44 L88.6192,84.343 C118.9482,82.898 149.5572,76.25 149.5572,64.663 C149.5572,64.453 149.5262,64.248 149.5072,64.04 L149.5072,64.04 Z" id="Fill-1" fill="#000000" mask="url(#mask-2)"></path>
        </g>
    </g>
</svg>